# xmcd
# 
# Track frame offsets:
#     150
#     64411
#     121930
#     178423
# 
# Disc length: 3911
# 
# Revision: 1
# Processed by: cddbd v1.5.2PL0 Copyright (c) Steve Scherf et al.
# Submitted via: fre:ac v1.1rc1
# 
DISCID=390f4504
DTITLE=日野皓正 - Taro's Mood  [Disc 1]
DYEAR=1973
DGENRE=J-Jazz
TTITLE0=Alone, Alone And Alone
TTITLE1=Taro's Mood
TTITLE2=Black Daffodil
TTITLE3=Predawn
EXTD=YEAR: 1973
EXTT0=
EXTT1=
EXTT2=
EXTT3=
PLAYORDER=
